<svg width="57" height="56" viewBox="0 0 57 56" fill="none" xmlns="http://www.w3.org/2000/svg">
<circle cx="28.5" cy="28" r="28" fill="white"/>
<path d="M20.5001 38.6665L15.9038 36.3684C15.4521 36.1425 15.1667 35.6808 15.1667 35.1758V30.3179C15.1667 29.7326 15.5485 29.2157 16.108 29.0436L19.5001 27.9998M20.5001 38.6665L19.5001 27.9998M20.5001 38.6665L20.6618 39.3133C20.9585 40.5004 22.0252 41.3332 23.2488 41.3332H27.1667M19.5001 27.9998L19.1667 23.9998C19.1667 18.8452 23.3454 14.6665 28.5001 14.6665C33.6547 14.6665 37.8334 18.8452 37.8334 23.9998L37.5001 27.9998M37.5001 27.9998L36.5001 38.6665L41.0964 36.3684C41.5481 36.1425 41.8334 35.6808 41.8334 35.1758V30.3179C41.8334 29.7326 41.4517 29.2157 40.8922 29.0436L37.5001 27.9998Z" stroke="#1E1E1E" stroke-width="2.66667" stroke-linecap="round" stroke-linejoin="round"/>
</svg>
