<svg width="461" height="178" viewBox="0 0 461 178" fill="none" xmlns="http://www.w3.org/2000/svg">
<g clip-path="url(#clip0_1342_44718)">
<rect width="461" height="178" rx="2" fill="#27262E"/>
<g clip-path="url(#clip1_1342_44718)">
<path fill-rule="evenodd" clip-rule="evenodd" d="M512.949 -503.05L-47.0507 56.9498L-52.7075 51.2929L507.292 -508.707L512.949 -503.05ZM512.95 -482.05L-47.0497 77.95L-52.7065 72.2932L507.293 -487.707L512.95 -482.05ZM-47.0497 98.95L512.95 -461.05L507.293 -466.707L-52.7065 93.2932L-47.0497 98.95ZM512.95 -440.05L-47.0497 119.95L-52.7065 114.293L507.293 -445.707L512.95 -440.05ZM-47.0497 140.95L512.95 -419.05L507.293 -424.707L-52.7065 135.293L-47.0497 140.95ZM512.95 -398.05L-47.0497 161.95L-52.7065 156.293L507.293 -403.707L512.95 -398.05ZM-47.0497 182.95L512.95 -377.05L507.293 -382.707L-52.7065 177.293L-47.0497 182.95ZM512.95 -356.05L-47.0497 203.95L-52.7065 198.293L507.293 -361.707L512.95 -356.05ZM-47.0497 224.95L512.95 -335.05L507.293 -340.707L-52.7065 219.293L-47.0497 224.95ZM512.95 -314.05L-47.0497 245.95L-52.7065 240.293L507.293 -319.707L512.95 -314.05ZM-47.0497 266.95L512.95 -293.05L507.293 -298.707L-52.7065 261.293L-47.0497 266.95ZM512.95 -272.05L-47.0497 287.95L-52.7065 282.293L507.293 -277.707L512.95 -272.05ZM-47.0497 308.95L512.95 -251.05L507.293 -256.707L-52.7065 303.293L-47.0497 308.95ZM512.95 -230.049L-47.0497 329.951L-52.7065 324.294L507.293 -235.706L512.95 -230.049ZM-47.0497 350.951L512.95 -209.049L507.293 -214.706L-52.7065 345.294L-47.0497 350.951ZM512.95 -188.049L-47.0497 371.951L-52.7065 366.294L507.293 -193.706L512.95 -188.049ZM-47.0497 392.951L512.95 -167.049L507.293 -172.706L-52.7065 387.294L-47.0497 392.951ZM512.95 -146.049L-47.0497 413.951L-52.7065 408.294L507.293 -151.706L512.95 -146.049ZM-47.0497 434.951L512.95 -125.049L507.293 -130.706L-52.7065 429.294L-47.0497 434.951ZM512.95 -104.049L-47.0497 455.951L-52.7065 450.294L507.293 -109.706L512.95 -104.049ZM-47.0497 476.951L512.95 -83.0495L507.293 -88.7064L-52.7065 471.294L-47.0497 476.951ZM512.95 -62.0495L-47.0497 497.951L-52.7065 492.294L507.293 -67.7064L512.95 -62.0495ZM-47.0497 518.951L512.95 -41.0495L507.293 -46.7064L-52.7065 513.294L-47.0497 518.951ZM512.95 -20.0495L-47.0497 539.951L-52.7065 534.294L507.293 -25.7064L512.95 -20.0495ZM-47.0497 560.951L512.95 0.9505L507.293 -4.70636L-52.7065 555.294L-47.0497 560.951ZM512.95 21.9505L-47.0497 581.951L-52.7065 576.294L507.293 16.2936L512.95 21.9505ZM-47.0497 602.951L512.95 42.9505L507.293 37.2936L-52.7065 597.294L-47.0497 602.951ZM512.95 63.9505L-47.0497 623.951L-52.7065 618.294L507.293 58.2936L512.95 63.9505ZM-47.0497 644.951L512.95 84.9505L507.293 79.2936L-52.7065 639.294L-47.0497 644.951ZM512.95 105.951L-47.0497 665.951L-52.7065 660.294L507.293 100.294L512.95 105.951ZM-47.0497 686.951L512.95 126.951L507.293 121.294L-52.7065 681.294L-47.0497 686.951Z" fill="black"/>
</g>
<rect width="449" height="166" transform="translate(6 6)" fill="black"/>
</g>
<defs>
<clipPath id="clip0_1342_44718">
<rect width="461" height="178" rx="2" fill="white"/>
</clipPath>
<clipPath id="clip1_1342_44718">
<rect width="564" height="350" fill="white" transform="translate(-52 -86)"/>
</clipPath>
</defs>
</svg>
