<svg width="24" height="24" viewBox="0 0 24 24" fill="none" xmlns="http://www.w3.org/2000/svg">
<g opacity="0.4">
<path d="M20.4469 7.951C20.1888 7.72904 19.9294 7.51703 19.6693 7.31396L16.6365 10.3468C16.8212 10.8637 16.9222 11.4202 16.9222 11.9998C16.9222 14.7137 14.7143 16.9217 12.0004 16.9217C11.4208 16.9217 10.8643 16.8207 10.3474 16.6358L8.07129 18.912C9.40047 19.4572 10.7188 19.7342 12.0004 19.7342C13.5312 19.7342 15.1144 19.3406 16.7059 18.5644C17.9557 17.9548 19.2143 17.1083 20.4469 16.0486C22.5307 14.2567 23.8144 12.4849 23.868 12.4104C24.0445 12.1651 24.0445 11.8345 23.868 11.5892C23.8144 11.5146 22.5307 9.74285 20.4469 7.951Z" fill="white"/>
<path d="M11.9997 15.5158C13.9382 15.5158 15.5153 13.9387 15.5153 12.0002C15.5153 11.8315 15.5027 11.6658 15.4796 11.5034L11.5029 15.4801C11.6654 15.5032 11.8311 15.5158 11.9997 15.5158Z" fill="white"/>
<path fill-rule="evenodd" clip-rule="evenodd" d="M22.7997 0.205911C23.0743 -0.0686369 23.5195 -0.0686369 23.794 0.205911C24.0686 0.480458 24.0686 0.925678 23.794 1.20023L1.20031 23.794C1.06306 23.9313 0.883111 24 0.703158 24C0.523205 24 0.3433 23.9313 0.206003 23.7941C-0.0685896 23.5195 -0.0685896 23.0743 0.206003 22.7997L5.48538 17.5202C4.83766 17.089 4.19205 16.5978 3.55348 16.0488C1.46966 14.257 0.185988 12.4851 0.132363 12.4106C-0.044121 12.1653 -0.044121 11.8346 0.132363 11.5894C0.185988 11.5148 1.4697 9.74303 3.55348 7.95118C4.78605 6.89143 6.04474 6.04496 7.29451 5.43535C8.88601 4.65914 10.4692 4.26558 12 4.26558C13.5308 4.26558 15.114 4.65914 16.7055 5.43539C16.8954 5.52797 17.0855 5.62655 17.2756 5.73005L22.7997 0.205911ZM12 7.07808C9.28609 7.07808 7.07814 9.28604 7.07814 12C7.07814 13.1039 7.44348 14.1241 8.05961 14.9461L9.06835 13.9373C8.69973 13.3814 8.48439 12.7155 8.48439 12C8.48439 10.0615 10.0615 8.48434 12 8.48434C12.7155 8.48434 13.3814 8.69968 13.9373 9.06831L14.9461 8.05956C14.1241 7.44343 13.1039 7.07808 12 7.07808Z" fill="white"/>
</g>
</svg>
