<svg width="49" height="48" viewBox="0 0 49 48" fill="none" xmlns="http://www.w3.org/2000/svg">
<path d="M40.5 6V7.11233C40.5 10.2705 39.3928 13.3287 37.371 15.7548L32.9007 21.1192C31.51 22.788 31.51 25.212 32.9007 26.8808L37.371 32.2452C39.3928 34.6713 40.5 37.7295 40.5 40.8877V42" stroke="black" stroke-width="3" stroke-linecap="round" stroke-linejoin="round"/>
<path d="M8.5 6V7.11233C8.5 10.2705 9.60722 13.3287 11.629 15.7548L16.0993 21.1192C17.49 22.788 17.49 25.212 16.0993 26.8808L11.629 32.2452C9.60722 34.6713 8.5 37.7295 8.5 40.8877V42" stroke="black" stroke-width="3" stroke-linecap="round" stroke-linejoin="round"/>
<path d="M6.5 4H42.5" stroke="black" stroke-width="3" stroke-linecap="round" stroke-linejoin="round"/>
<path d="M6.5 44H42.5" stroke="black" stroke-width="3" stroke-linecap="round" stroke-linejoin="round"/>
<path d="M30.2299 38H18.7701C17.0744 38 16.1481 36.0223 17.2336 34.7196L22.9636 27.8437C23.7631 26.8842 25.2369 26.8842 26.0364 27.8437L31.7664 34.7196C32.8519 36.0223 31.9256 38 30.2299 38Z" fill="#999999" stroke="#999999" stroke-width="3.375" stroke-linecap="round" stroke-linejoin="round"/>
</svg>
